<?xml version="1.0" ?><!DOCTYPE svg  PUBLIC '-//W3C//DTD SVG 1.1//EN'  'http://www.w3.org/Graphics/SVG/1.1/DTD/svg11.dtd'><svg enable-background="new 0 0 32 32"  id="Слой_1" version="1.1" viewBox="0 0 32 32"  xml:space="preserve" xmlns="http://www.w3.org/2000/svg" xmlns:xlink="http://www.w3.org/1999/xlink"><g id="Double_Arrow_Drop_Right_1_"><path clip-rule="evenodd" d="M17.307,16.727L17.307,16.727l9.97,9.991   c0.634,0.66,1.748,0.162,1.723-0.734V6.041c0.024-0.892-1.082-1.376-1.715-0.742l-9.977,9.999   C16.913,15.693,16.913,16.332,17.307,16.727L17.307,16.727z M26.995,8.446v15.133l-7.55-7.566L26.995,8.446z" fill="#121313" fill-rule="evenodd"/><path clip-rule="evenodd" d="M3.319,16.716L3.319,16.716L3.319,16.716l9.97,9.991   c0.634,0.66,1.748,0.162,1.723-0.734V6.031c0.024-0.892-1.082-1.376-1.715-0.742l-9.977,9.999   C2.925,15.682,2.925,16.322,3.319,16.716z M13.007,8.436v15.133l-7.55-7.566L13.007,8.436z" fill="#121313" fill-rule="evenodd"/></g><g/><g/><g/><g/><g/><g/></svg>