<?xml version="1.0" ?><!DOCTYPE svg  PUBLIC '-//W3C//DTD SVG 1.1//EN'  'http://www.w3.org/Graphics/SVG/1.1/DTD/svg11.dtd'><svg enable-background="new 0 0 32 32"  id="Слой_1" version="1.1" viewBox="0 0 32 32"  xml:space="preserve" xmlns="http://www.w3.org/2000/svg" xmlns:xlink="http://www.w3.org/1999/xlink"><path clip-rule="evenodd" d="M15.251,0.279L0.307,15.223  c-0.202,0.202-0.301,0.467-0.299,0.731c0,0.008-0.004,0.014-0.004,0.022l0,15c0,0.552,0.448,1,1,1c0.008,0,0.014-0.004,0.022-0.004  c0.264,0.002,0.529-0.097,0.731-0.299l14.246-14.246l14.277,14.277c0.401,0.401,1.051,0.401,1.452,0  c0.238-0.238,0.317-0.561,0.273-0.87V16.122c0.044-0.309-0.035-0.632-0.273-0.87L16.76,0.28c-0.208-0.208-0.482-0.303-0.755-0.295  C15.733-0.023,15.459,0.072,15.251,0.279z M30.004,16.428v12.096L16.76,15.28c-0.208-0.208-0.482-0.303-0.755-0.295  c-0.272-0.008-0.546,0.087-0.754,0.295L2.004,28.526V16.425L16.003,2.427L30.004,16.428z" fill="#121313" fill-rule="evenodd" id="Border_Arrow_Up"/><g/><g/><g/><g/><g/><g/></svg>